<svg width="34" height="34" viewBox="0 0 34 34" fill="none" xmlns="http://www.w3.org/2000/svg">
<path d="M0 4.95833C0 3.78249 0.949167 2.83333 2.125 2.83333H24.7917C25.9675 2.83333 26.9167 3.78249 26.9167 4.95833C26.9167 6.13416 25.9675 7.08333 24.7917 7.08333H2.125C0.949167 7.08333 0 6.13416 0 4.95833ZM24.7917 25.5H2.125C0.949167 25.5 0 26.4492 0 27.625C0 28.8008 0.949167 29.75 2.125 29.75H24.7917C25.9675 29.75 26.9167 28.8008 26.9167 27.625C26.9167 26.4492 25.9675 25.5 24.7917 25.5ZM31.875 14.1667H9.20833C8.0325 14.1667 7.08333 15.1158 7.08333 16.2917C7.08333 17.4675 8.0325 18.4167 9.20833 18.4167H31.875C33.0508 18.4167 34 17.4675 34 16.2917C34 15.1158 33.0508 14.1667 31.875 14.1667Z" fill="white" fill-opacity="0.9"/>
</svg>
